<?xml version="1.0" encoding="UTF-8"?>
<!DOCTYPE svg PUBLIC "-//W3C//DTD SVG 1.1//EN" "http://www.w3.org/Graphics/SVG/1.1/DTD/svg11.dtd">
<!-- Creator: CorelDRAW -->
<svg xmlns="http://www.w3.org/2000/svg" xml:space="preserve" width="6.82666in" height="6.82666in" style="shape-rendering:geometricPrecision; text-rendering:geometricPrecision; image-rendering:optimizeQuality; fill-rule:evenodd; clip-rule:evenodd"
viewBox="0 0 6.82666 6.82666"
 xmlns:xlink="http://www.w3.org/1999/xlink">
 <defs>
  <style type="text/css">
   <![CDATA[
    .str0 {stroke:#212121;stroke-width:0.213335}
    .fil1 {fill:none}
    .fil0 {fill:#212121;fill-rule:nonzero}
   ]]>
  </style>
 </defs>
 <g id="Layer_x0020_1">
  <metadata id="CorelCorpID_0Corel-Layer"/>
  <g id="_435216304">
   <path id="_435216976" class="fil0" d="M5.1732 2.42436c0.0791102,0.0206732 0.155736,0.0498465 0.227894,0.0884173 0.0912402,0.0487717 0.174567,0.111988 0.245898,0.191315 0.0738346,0.0821063 0.130413,0.177512 0.167736,0.280126 0.0372402,0.102421 0.055063,0.212043 0.0514724,0.32276 -0.00368504,0.113598 -0.0294134,0.223913 -0.0748386,0.325315 -0.0454646,0.101484 -0.110441,0.193984 -0.192602,0.271902 -0.0938976,0.0890354 -0.202421,0.152835 -0.318961,0.195067 -0.125421,0.0454528 -0.259173,0.0658583 -0.393071,0.0658583l-1.89591 0c-0.137071,0 -0.273945,-0.0213543 -0.40185,-0.069122 -0.118681,-0.0443228 -0.22852,-0.111165 -0.322402,-0.204469 -0.0818465,-0.0813425 -0.145256,-0.177311 -0.188323,-0.281787 -0.0432244,-0.10487 -0.0658071,-0.21839 -0.0657992,-0.334315 3.93701e-006,-0.115925 0.0225945,-0.229429 0.0658228,-0.33428 0.0430787,-0.104472 0.106492,-0.200425 0.188335,-0.281756 0.0938858,-0.0932913 0.20372,-0.160122 0.32239,-0.204441 0.127909,-0.0477638 0.264772,-0.0691102 0.401827,-0.0691102l0.116957 0c0.0127126,-0.124748 0.0461417,-0.243846 0.101772,-0.352791 0.0671969,-0.131606 0.166193,-0.247567 0.299457,-0.339925 0.0904921,-0.0627165 0.190437,-0.10965 0.294768,-0.14115 0.106949,-0.0322835 0.219697,-0.0484055 0.332524,-0.0487165 0.113638,-0.000318898 0.227591,0.0155236 0.335961,0.047937 0.105795,0.0316417 0.206886,0.0789252 0.298012,0.142213 0.135768,0.0942953 0.235839,0.213299 0.302929,0.348492 0.0583622,0.117606 0.0910591,0.246984 0.100004,0.382461zm0.132051 0.268118c-0.0769055,-0.0411063 -0.161642,-0.0691102 -0.250114,-0.0856457l-0.0834094 -0.0155906 0.000346457 -0.0850433c0.000543307,-0.133972 -0.0258386,-0.261339 -0.0817756,-0.374051 -0.051815,-0.104421 -0.129957,-0.196925 -0.236642,-0.27102 -0.0730748,-0.050748 -0.154394,-0.088748 -0.239705,-0.11426 -0.0902913,-0.0270079 -0.184449,-0.0402087 -0.277657,-0.0399488 -0.0918386,0.000255906 -0.184787,0.0137362 -0.274217,0.0407283 -0.0846693,0.025563 -0.16515,0.0632165 -0.237268,0.113197 -0.104516,0.072437 -0.181843,0.16276 -0.233969,0.26485 -0.0557835,0.109248 -0.0834016,0.232949 -0.085189,0.363579l-0.00138583 0.101031 -0.100445 0 -0.213004 0c-0.11511,0 -0.22798,0.0171535 -0.330744,0.0555276 -0.0921535,0.0344094 -0.177256,0.0861181 -0.249713,0.158118 -0.0624843,0.0620984 -0.110839,0.135205 -0.143606,0.214669 -0.0332598,0.0806732 -0.0506496,0.167882 -0.0506496,0.256807 -3.93701e-006,0.0889488 0.0173701,0.176161 0.050626,0.256843 0.0327638,0.0794803 0.0811142,0.152598 0.143594,0.214701 0.0724646,0.0720157 0.157567,0.123732 0.24972,0.158146 0.102776,0.0383819 0.21565,0.0555394 0.330772,0.0555394l1.89591 0c0.11222,0 0.222512,-0.0164449 0.323583,-0.0530748 0.091063,-0.0329961 0.175449,-0.0824567 0.247878,-0.151138 0.0629646,-0.0597087 0.112583,-0.130197 0.147087,-0.207213 0.0347598,-0.0776024 0.0544449,-0.161925 0.0572598,-0.248646 0.00274409,-0.0844882 -0.0109331,-0.168346 -0.0394882,-0.246878 -0.0282756,-0.077748 -0.0713819,-0.150303 -0.127799,-0.213035 -0.0555551,-0.0617795 -0.119906,-0.110728 -0.189996,-0.148193z"/>
   <path id="_435217240" class="fil0" d="M1.82664 1.98622l0.224028 0c0.00895669,-0.423547 0.246854,-0.696094 0.549768,-0.81715 0.118709,-0.0474409 0.24676,-0.0711654 0.374142,-0.0711654 0.127386,0 0.255433,0.0237244 0.374142,0.0711654 0.152307,0.0608661 0.288146,0.160055 0.38674,0.297457 -0.0669724,0.0227165 -0.131858,0.0513307 -0.193555,0.0857717 -0.0724685,-0.0880472 -0.165835,-0.152689 -0.269055,-0.193941 -0.0933937,-0.0373228 -0.195508,-0.0559882 -0.298272,-0.0559882 -0.102764,0 -0.204878,0.0186654 -0.298268,0.0559882 -0.23661,0.0945591 -0.421469,0.311969 -0.421469,0.652681 0,0.0154331 0.000185039,0.0267638 0.000535433,0.0341457 0.000606299,0.0127402 0.00138583,0.0240787 0.00232283,0.0340827l0.0104252 0.111417 -0.111858 0 -0.329626 0c-0.321063,0 -0.524531,0.14876 -0.611839,0.339165 -0.0335591,0.0731811 -0.0503425,0.15326 -0.0503425,0.233878 0,0.0806181 0.0167835,0.160689 0.0503425,0.233874 0.087311,0.190409 0.290783,0.339173 0.611839,0.339173l0.0854803 0c0.00429528,0.0692165 0.0158465,0.13778 0.0345551,0.204465l-0.120035 0c-0.412772,0 -0.678972,-0.201311 -0.797126,-0.45898 -0.0463425,-0.101063 -0.0695197,-0.210079 -0.0695197,-0.318531 0,-0.108453 0.0231772,-0.217476 0.0695197,-0.318531 0.11815,-0.257673 0.38435,-0.458976 0.797126,-0.458976z"/>
   <path id="_435217408" class="fil1 str0" d="M2.36439 4.34652c-0.550717,0.863559 0.697433,0.750075 0,0z"/>
   <path id="_435215944" class="fil1 str0" d="M5.44991 5.2274c-0.378177,0.758476 0.639087,0.556665 0,0z"/>
   <path id="_435216544" class="fil1 str0" d="M3.46501 4.36838c-0.617461,0.817169 0.63576,0.803016 0,0z"/>
   <path id="_435216256" class="fil1 str0" d="M2.94908 5.1212c-0.640244,0.799445 0.612874,0.820618 0,0z"/>
   <path id="_435216496" class="fil1 str0" d="M4.7141 4.36746c-0.529205,0.876909 0.715756,0.73261 0,0z"/>
   <path id="_435216472" class="fil1 str0" d="M4.01528 5.12039c-0.529205,0.876909 0.71576,0.73261 0,0z"/>
  </g>
 </g>
 <rect class="fil1" width="6.82666" height="6.82666"/>
</svg>
