<?xml version="1.0" encoding="iso-8859-1"?>
<!-- Generator: Adobe Illustrator 19.0.0, SVG Export Plug-In . SVG Version: 6.00 Build 0)  -->
<svg xmlns="http://www.w3.org/2000/svg" xmlns:xlink="http://www.w3.org/1999/xlink" version="1.1" id="Layer_1" x="0px" y="0px" viewBox="0 0 511.999 511.999" style="enable-background:new 0 0 511.999 511.999;" xml:space="preserve">
<path style="fill:#4B5256;" d="M437.197,176.979c-3.391-31.664-28.615-56.798-60.328-60.035C374.404,56.087,324.309,7.5,262.846,7.5  c-62.082,0-114.132,49.995-114.132,114.484c-36.748-16.814-79.217,7.193-83.933,47.144c-32.806,0-57.491,26.215-57.491,57.051  c0,31.515,25.546,57.061,57.06,57.061c409.508,0,386.477,0.82,400.423-2.138c33.875-8.442,38.834-39.976,39.387-44.623  C505.842,199.459,473.183,171.02,437.197,176.979z"/>
<path style="fill:#5A6266;" d="M437.197,176.979c-3.391-31.664-28.615-56.798-60.328-60.035  c-3.042-75.098-77.136-127.251-149.22-103.904c-60.529,92.159-28.946,218.823,71.879,270.2c156.438,0,151.996,0.672,165.246-2.138  c33.875-8.442,38.834-39.976,39.387-44.623C505.842,199.459,473.183,171.02,437.197,176.979z"/>
<path style="fill:#FF9C01;" d="M319.056,333.644h-52.305l14.231-98.419c0.782-5.411-6.516-7.962-9.271-3.231L188.028,375.7  c-1.937,3.326,0.466,7.516,4.321,7.516h54.223l-16.793,94.702c-0.967,5.453,6.378,8.155,9.208,3.451l84.353-140.147  C325.343,337.895,322.939,333.644,319.056,333.644z"/>
<path style="fill:#FF8103;" d="M273.725,356.65h-35.669c-5.158,0-5.021-3.005-4.591-4.587l44.213-122.275  c-2.26-0.788-4.762,0.137-5.967,2.206L188.027,375.7c-1.937,3.326,0.466,7.516,4.321,7.516h54.223l-16.793,94.702  c-0.421,2.373,0.912,4.709,3.169,5.555l45.813-118.908C281.825,356.601,273.725,356.65,273.725,356.65z"/>
<path d="M228.8,170.571c18.73-18.113,49.906-5.911,51.92,19.602c0.308,3.901,3.564,6.91,7.477,6.91h52.679  c4.143,0,7.5-3.357,7.5-7.5s-3.357-7.5-7.5-7.5h-46.291c-6.58-27.603-37.236-43.275-63.768-30.88  c-3.895-22.646-23.676-39.931-47.418-39.931c-4.143,0-7.5,3.357-7.5,7.5s3.357,7.5,7.5,7.5c20.002,0,35.66,17.757,32.763,37.834  C215.143,171.168,223.683,175.522,228.8,170.571z"/>
<path d="M389.212,197.084c4.143,0,7.5-3.357,7.5-7.5s-3.357-7.5-7.5-7.5h-22.138c-4.143,0-7.5,3.357-7.5,7.5s3.357,7.5,7.5,7.5  H389.212z"/>
<path d="M443.711,168.769c-6.213-29.477-29.874-52.731-59.527-58.364c-1.427-15.681-5.821-30.698-13.097-44.722  c-1.907-3.677-6.437-5.109-10.112-3.203c-3.677,1.907-5.11,6.435-3.203,10.112c7.214,13.905,11.195,28.93,11.832,44.657  c0.151,3.729,3.021,6.778,6.732,7.157c28.071,2.865,50.627,25.31,53.632,53.372c0.22,2.052,1.275,3.923,2.918,5.172  c3.764,2.861,5.71,0.738,14.028,0.738c28.353,0,51.383,23.833,49.998,52.149c-0.72,5.653-5.491,30.878-33.597,37.954  c-12.607,2.65-5.769,1.936-180.386,1.946l9.387-64.918c1.173-8.113-9.774-11.943-13.905-4.848l-40.625,69.766H64.581  c-27.327,0-49.56-22.232-49.56-49.561c0-26.613,21.32-49.551,49.991-49.551c3.802,0,7.003-2.845,7.448-6.621  c4.143-35.094,41.407-55.825,73.363-41.201c4.935,2.259,10.836-1.316,10.611-7.261c0.055-58.756,47.873-106.54,106.643-106.54  c30.9,0,60.253,13.395,80.531,36.749c2.716,3.127,7.453,3.461,10.581,0.746c3.128-2.716,3.462-7.452,0.746-10.581  C331.807,15.277,298.326,0,263.077,0c-63.644,0-116.027,49.127-121.219,111.452c-37.07-10.154-75.137,13.023-83.234,50.438  c-32.817,3.016-58.603,30.697-58.603,64.289c0,35.6,28.962,64.562,64.561,64.562h164.471L177.4,379.441  c-1.351,2.32-1.358,5.184-0.02,7.513c1.338,2.327,3.817,3.762,6.502,3.762h53.974l-19.945,112.472  c-1.442,8.138,9.552,12.255,13.812,5.177l60.884-101.153c2.136-3.549,0.991-8.158-2.558-10.294  c-3.55-2.136-8.157-0.991-10.295,2.559l-40.002,66.46l14.437-81.412c0.815-4.595-2.725-8.811-7.385-8.811h-49.875  c7.273-12.491,65.834-113.054,75.018-128.826c-2.672,18.48-10.741,74.282-12.389,85.681c-0.654,4.523,2.861,8.574,7.423,8.574  h47.883l-21.932,36.44c-2.136,3.549-0.99,8.157,2.559,10.294c3.546,2.136,8.157,0.991,10.294-2.559l28.774-47.808  c3.005-4.991-0.6-11.368-6.426-11.368h-52.488l5.119-35.403c153.643,0,168.03,1.468,185.798-2.301  c28.069-5.992,45.432-33.455,45.432-54.675C511.992,196.662,480.818,166.91,443.711,168.769z"/>
<path d="M380.804,350.493l6.892-12.091c2.052-3.599,0.797-8.179-2.802-10.23c-3.597-2.051-8.178-0.798-10.23,2.802l-6.892,12.091  c-2.052,3.599-0.797,8.179,2.802,10.23C374.172,355.345,378.753,354.091,380.804,350.493z"/>
<path d="M358.333,389.922l6.892-12.091c2.052-3.599,0.797-8.179-2.802-10.23c-3.598-2.05-8.178-0.798-10.23,2.802l-6.892,12.091  c-2.052,3.599-0.797,8.179,2.802,10.23C351.702,394.775,356.282,393.521,358.333,389.922z"/>
<path d="M335.861,429.351l6.89-12.09c2.052-3.599,0.797-8.179-2.802-10.23c-3.599-2.051-8.18-0.797-10.23,2.802l-6.89,12.09  c-2.861,5.018,0.801,11.216,6.509,11.216C331.945,433.138,334.478,431.778,335.861,429.351z"/>
<path d="M317.478,446.462c-3.598-2.052-8.179-0.797-10.23,2.802l-6.89,12.09c-2.052,3.599-0.797,8.179,2.802,10.23  c3.598,2.051,8.179,0.797,10.23-2.802l6.89-12.09C322.332,453.094,321.077,448.513,317.478,446.462z"/>
<path d="M295.008,485.895c-3.599-2.05-8.179-0.798-10.231,2.801l-6.891,12.088c-2.052,3.599-0.797,8.179,2.801,10.231  c3.606,2.053,8.184,0.792,10.231-2.801l6.891-12.088C299.861,492.527,298.606,487.947,295.008,485.895z"/>
<path d="M441.315,328.171c-3.597-2.051-8.179-0.798-10.23,2.802l-6.892,12.091c-2.052,3.599-0.797,8.179,2.802,10.23  c3.598,2.051,8.179,0.797,10.23-2.802l6.892-12.091C446.169,334.803,444.914,330.222,441.315,328.171z"/>
<path d="M418.845,367.602c-3.597-2.05-8.179-0.798-10.23,2.802l-6.892,12.091c-2.052,3.599-0.797,8.179,2.802,10.23  c3.598,2.051,8.179,0.797,10.23-2.802l6.892-12.091C423.698,374.233,422.443,369.653,418.845,367.602z"/>
<path d="M396.37,407.032c-3.599-2.051-8.179-0.797-10.23,2.802l-6.89,12.09c-2.052,3.599-0.797,8.179,2.802,10.23  c3.598,2.051,8.179,0.797,10.23-2.802l6.89-12.09C401.224,413.663,399.97,409.083,396.37,407.032z"/>
<path d="M373.899,446.462c-3.598-2.052-8.179-0.797-10.23,2.802l-6.89,12.09c-2.052,3.599-0.797,8.179,2.802,10.23  c3.598,2.051,8.179,0.797,10.23-2.802l6.89-12.09C378.753,453.094,377.498,448.513,373.899,446.462z"/>
<path d="M351.429,485.895c-3.599-2.05-8.18-0.798-10.231,2.801l-6.891,12.088c-2.052,3.599-0.797,8.179,2.801,10.231  c3.606,2.053,8.183,0.792,10.231-2.801l6.891-12.088C356.282,492.527,355.027,487.947,351.429,485.895z"/>
<path d="M157.332,354.28c2.606,0,5.14-1.36,6.522-3.787l6.892-12.091c2.052-3.599,0.797-8.179-2.802-10.23  c-3.597-2.051-8.178-0.798-10.231,2.802l-6.892,12.091C147.962,348.082,151.624,354.28,157.332,354.28z"/>
<path d="M134.861,393.709c2.606,0,5.14-1.36,6.522-3.787l6.892-12.091c2.052-3.599,0.797-8.179-2.802-10.23  c-3.597-2.05-8.179-0.798-10.23,2.802l-6.892,12.091C125.49,387.513,129.153,393.709,134.861,393.709z"/>
<path d="M122.999,407.032c-3.598-2.051-8.179-0.797-10.23,2.802l-6.89,12.09c-2.052,3.599-0.797,8.179,2.802,10.23  c3.598,2.051,8.179,0.797,10.23-2.802l6.89-12.09C127.854,413.663,126.598,409.083,122.999,407.032z"/>
<path d="M100.529,446.462c-3.599-2.052-8.179-0.797-10.23,2.802l-6.89,12.09c-2.052,3.599-0.797,8.179,2.802,10.23  c3.598,2.051,8.179,0.797,10.23-2.802l6.89-12.09C105.382,453.094,104.127,448.513,100.529,446.462z"/>
<path d="M78.059,485.895c-3.599-2.05-8.179-0.798-10.231,2.801l-6.891,12.088c-2.052,3.599-0.797,8.179,2.801,10.231  c3.606,2.053,8.183,0.792,10.231-2.801l6.891-12.088C82.912,492.527,81.657,487.947,78.059,485.895z"/>
<path d="M183.391,406.29c-3.598-2.048-8.179-0.796-10.231,2.804l-6.889,12.09c-2.051,3.599-0.796,8.179,2.804,10.23  c3.604,2.051,8.181,0.792,10.231-2.804l6.889-12.09C188.246,412.921,186.991,408.34,183.391,406.29z"/>
<path d="M160.921,445.721c-3.599-2.051-8.179-0.797-10.23,2.802l-6.89,12.09c-2.052,3.599-0.797,8.179,2.802,10.23  c3.598,2.051,8.179,0.797,10.231-2.802l6.89-12.09C165.776,452.353,164.521,447.772,160.921,445.721z"/>
<path d="M138.452,485.153c-3.6-2.051-8.18-0.798-10.231,2.801l-6.891,12.088c-2.052,3.599-0.797,8.179,2.801,10.231  c3.606,2.053,8.183,0.792,10.231-2.801l6.891-12.088C143.304,491.786,142.049,487.206,138.452,485.153z"/>
<path d="M97.387,354.28c2.606,0,5.14-1.36,6.523-3.787l6.892-12.091c2.052-3.599,0.797-8.179-2.802-10.23  c-3.596-2.051-8.178-0.798-10.23,2.802l-6.892,12.091C88.016,348.082,91.679,354.28,97.387,354.28z"/>
<path d="M74.915,393.709c2.606,0,5.14-1.36,6.522-3.787l6.892-12.091c2.052-3.599,0.797-8.179-2.802-10.23  c-3.597-2.05-8.179-0.798-10.23,2.802l-6.892,12.091C65.546,387.513,69.208,393.709,74.915,393.709z"/>
<path d="M63.055,407.032c-3.598-2.051-8.179-0.797-10.23,2.802l-6.89,12.09c-2.052,3.599-0.797,8.179,2.802,10.23  c3.598,2.051,8.179,0.797,10.23-2.802l6.89-12.09C67.909,413.663,66.654,409.083,63.055,407.032z"/>
<path d="M40.583,446.462c-3.599-2.052-8.179-0.797-10.23,2.802l-6.89,12.09c-2.052,3.599-0.797,8.179,2.802,10.23  c3.598,2.051,8.179,0.797,10.231-2.802l6.89-12.09C45.438,453.094,44.183,448.513,40.583,446.462z"/>
<path d="M18.114,485.895c-3.601-2.05-8.179-0.798-10.231,2.801l-6.891,12.088c-2.052,3.599-0.797,8.179,2.801,10.231  c3.606,2.053,8.183,0.792,10.231-2.801l6.891-12.088C22.966,492.527,21.711,487.947,18.114,485.895z"/>
<g>
</g>
<g>
</g>
<g>
</g>
<g>
</g>
<g>
</g>
<g>
</g>
<g>
</g>
<g>
</g>
<g>
</g>
<g>
</g>
<g>
</g>
<g>
</g>
<g>
</g>
<g>
</g>
<g>
</g>
</svg>
